{
  "accessors": [
    {
      "bufferView": 2,
      "componentType": 5126,
      "count": 16448,
      "max": [
        9.074348449707031,
        19.2529296875,
        13.521286010742188
      ],
      "min": [
        -2.449726104736328,
        4.628398895263672,
        -3.120361328125
      ],
      "type": "VEC3"
    },
    {
      "bufferView": 2,
      "byteOffset": 197376,
      "componentType": 5126,
      "count": 16448,
      "max": [
        0.9999735355377197,
        0.9997045397758484,
        0.9998770356178284
      ],
      "min": [
        -0.9999642372131348,
        -0.9997013807296753,
        -0.9995031952857971
      ],
      "type": "VEC3"
    },
    {
      "bufferView": 1,
      "componentType": 5126,
      "count": 16448,
      "max": [
        0.9803522825241089,
        0.9893864989280701
      ],
      "min": [
        0.005159389227628708,
        0.008136212825775146
      ],
      "type": "VEC2"
    },
    {
      "bufferView": 0,
      "componentType": 5125,
      "count": 89976,
      "type": "SCALAR"
    },
    {
      "bufferView": 2,
      "byteOffset": 394752,
      "componentType": 5126,
      "count": 16448,
      "max": [
        18.576416015625,
        23.51165771484375,
        11.760078430175781
      ],
      "min": [
        -11.375371932983398,
        0.8201255798339844,
        -9.616218566894531
      ],
      "type": "VEC3"
    },
    {
      "bufferView": 2,
      "byteOffset": 592128,
      "componentType": 5126,
      "count": 16448,
      "max": [
        0.9988192319869995,
        0.9993997812271118,
        0.999731183052063
      ],
      "min": [
        -0.9999057054519653,
        -0.9999751448631287,
        -0.9998589754104614
      ],
      "type": "VEC3"
    },
    {
      "bufferView": 1,
      "byteOffset": 131584,
      "componentType": 5126,
      "count": 16448,
      "max": [
        0.9803522825241089,
        0.9893864989280701
      ],
      "min": [
        0.005159389227628708,
        0.008136212825775146
      ],
      "type": "VEC2"
    },
    {
      "bufferView": 0,
      "byteOffset": 359904,
      "componentType": 5125,
      "count": 89976,
      "type": "SCALAR"
    },
    {
      "bufferView": 2,
      "byteOffset": 789504,
      "componentType": 5126,
      "count": 16668,
      "max": [
        6.181997299194336,
        14.87771224975586,
        6.732276916503906
      ],
      "min": [
        -7.2764363288879395,
        9.425777435302734,
        -7.844631195068359
      ],
      "type": "VEC3"
    },
    {
      "bufferView": 2,
      "byteOffset": 989520,
      "componentType": 5126,
      "count": 16668,
      "max": [
        0.9988614916801453,
        -0.0007519613718613982,
        0.9988614916801453
      ],
      "min": [
        -0.9988612532615662,
        -0.752727746963501,
        -0.9980888962745667
      ],
      "type": "VEC3"
    },
    {
      "bufferView": 1,
      "byteOffset": 263168,
      "componentType": 5126,
      "count": 16668,
      "max": [
        0.9624311327934265,
        0.9980080127716064
      ],
      "min": [
        0.0019210202153772116,
        0.0019920319318771362
      ],
      "type": "VEC2"
    },
    {
      "bufferView": 0,
      "byteOffset": 719808,
      "componentType": 5125,
      "count": 37044,
      "type": "SCALAR"
    },
    {
      "bufferView": 2,
      "byteOffset": 1189536,
      "componentType": 5126,
      "count": 896,
      "max": [
        8.308273315429688,
        11.42608642578125,
        8.30828857421875
      ],
      "min": [
        -8.308276176452637,
        0.0,
        -8.30828857421875
      ],
      "type": "VEC3"
    },
    {
      "bufferView": 2,
      "byteOffset": 1200288,
      "componentType": 5126,
      "count": 896,
      "max": [
        1.0,
        1.0,
        1.0
      ],
      "min": [
        -1.0,
        -1.0,
        -1.0
      ],
      "type": "VEC3"
    },
    {
      "bufferView": 1,
      "byteOffset": 396512,
      "componentType": 5126,
      "count": 896,
      "max": [
        0.9857200384140015,
        0.9882532358169556
      ],
      "min": [
        0.012595653533935547,
        0.02726123481988907
      ],
      "type": "VEC2"
    },
    {
      "bufferView": 0,
      "byteOffset": 867984,
      "componentType": 5125,
      "count": 4794,
      "type": "SCALAR"
    }
  ],
  "asset": {
    "extras": {
      "author": "Blizzy (https://sketchfab.com/jeffbas)",
      "license": "CC-BY-4.0 (http://creativecommons.org/licenses/by/4.0/)",
      "source": "https://sketchfab.com/3d-models/pothos-plant-175142c4942b42169455eb20c4033c9d",
      "title": "Pothos Plant"
    },
    "generator": "Sketchfab-15.1.0",
    "version": "2.0"
  },
  "bufferViews": [
    {
      "buffer": 0,
      "byteLength": 887160,
      "name": "floatBufferViews",
      "target": 34963
    },
    {
      "buffer": 0,
      "byteLength": 403680,
      "byteOffset": 887160,
      "byteStride": 8,
      "name": "floatBufferViews",
      "target": 34962
    },
    {
      "buffer": 0,
      "byteLength": 1211040,
      "byteOffset": 1290840,
      "byteStride": 12,
      "name": "floatBufferViews",
      "target": 34962
    }
  ],
  "buffers": [
    {
      "byteLength": 2501880,
      "uri": "scene.bin"
    }
  ],
  "extensionsUsed": [
    "KHR_materials_specular"
  ],
  "images": [
    {
      "uri": "textures/lambert7_baseColor.jpeg"
    },
    {
      "uri": "textures/lambert5_baseColor.jpeg"
    }
  ],
  "materials": [
    {
      "doubleSided": true,
      "extensions": {
        "KHR_materials_specular": {
          "specularColorFactor": [
            1.0,
            1.0,
            1.0
          ],
          "specularFactor": 0.907
        }
      },
      "name": "lambert7",
      "pbrMetallicRoughness": {
        "baseColorTexture": {
          "index": 0
        },
        "metallicFactor": 0.0,
        "roughnessFactor": 0.334
      }
    },
    {
      "doubleSided": true,
      "extensions": {
        "KHR_materials_specular": {
          "specularColorFactor": [
            1.0,
            1.0,
            1.0
          ],
          "specularFactor": 0.9066694298496909
        }
      },
      "name": "lambert6",
      "pbrMetallicRoughness": {
        "baseColorTexture": {
          "index": 0
        },
        "metallicFactor": 0.0,
        "roughnessFactor": 0.3337153027513988
      }
    },
    {
      "doubleSided": true,
      "extensions": {
        "KHR_materials_specular": {
          "specularColorFactor": [
            1.0,
            1.0,
            1.0
          ],
          "specularFactor": 0.5531445429167022
        }
      },
      "name": "lambert9",
      "pbrMetallicRoughness": {
        "baseColorFactor": [
          0.175203,
          0.243,
          0.107406,
          1.0
        ],
        "metallicFactor": 0.0,
        "roughnessFactor": 0.28495324938133143
      }
    },
    {
      "doubleSided": true,
      "extensions": {
        "KHR_materials_specular": {
          "specularColorFactor": [
            1.0,
            1.0,
            1.0
          ],
          "specularFactor": 0.7664785264107471
        }
      },
      "name": "lambert5",
      "pbrMetallicRoughness": {
        "baseColorTexture": {
          "index": 1
        },
        "metallicFactor": 0.3702868427789494,
        "roughnessFactor": 0.24571198693176977
      }
    }
  ],
  "meshes": [
    {
      "name": "ivy_2_lambert7_0",
      "primitives": [
        {
          "attributes": {
            "NORMAL": 1,
            "POSITION": 0,
            "TEXCOORD_0": 2
          },
          "indices": 3,
          "material": 0,
          "mode": 4
        }
      ]
    },
    {
      "name": "ivy_1_lambert6_0",
      "primitives": [
        {
          "attributes": {
            "NORMAL": 5,
            "POSITION": 4,
            "TEXCOORD_0": 6
          },
          "indices": 7,
          "material": 1,
          "mode": 4
        }
      ]
    },
    {
      "name": "grass_lambert9_0",
      "primitives": [
        {
          "attributes": {
            "NORMAL": 9,
            "POSITION": 8,
            "TEXCOORD_0": 10
          },
          "indices": 11,
          "material": 2,
          "mode": 4
        }
      ]
    },
    {
      "name": "pot_lambert5_0",
      "primitives": [
        {
          "attributes": {
            "NORMAL": 13,
            "POSITION": 12,
            "TEXCOORD_0": 14
          },
          "indices": 15,
          "material": 3,
          "mode": 4
        }
      ]
    }
  ],
  "nodes": [
    {
      "children": [
        1
      ],
      "matrix": [
        1.0,
        0.0,
        0.0,
        0.0,
        0.0,
        2.220446049250313e-16,
        -1.0,
        0.0,
        0.0,
        1.0,
        2.220446049250313e-16,
        0.0,
        0.0,
        0.0,
        0.0,
        1.0
      ],
      "name": "Sketchfab_model"
    },
    {
      "children": [
        2
      ],
      "matrix": [
        1.0,
        0.0,
        0.0,
        0.0,
        0.0,
        0.0,
        1.0,
        0.0,
        0.0,
        -1.0,
        0.0,
        0.0,
        0.0,
        0.0,
        0.0,
        1.0
      ],
      "name": "2b82f215bc004a7bbcd52ff54adf6704.fbx"
    },
    {
      "children": [
        3
      ],
      "name": "RootNode"
    },
    {
      "children": [
        4,
        6,
        8,
        10
      ],
      "matrix": [
        0.009999999776482582,
        0.0,
        0.0,
        0.0,
        0.0,
        0.009999999776482582,
        0.0,
        0.0,
        0.0,
        0.0,
        0.009999999776482582,
        0.0,
        0.0,
        0.0,
        0.0,
        1.0
      ],
      "name": "group4"
    },
    {
      "children": [
        5
      ],
      "name": "ivy_2"
    },
    {
      "mesh": 0,
      "name": "ivy_2_lambert7_0"
    },
    {
      "children": [
        7
      ],
      "name": "ivy_1"
    },
    {
      "mesh": 1,
      "name": "ivy_1_lambert6_0"
    },
    {
      "children": [
        9
      ],
      "name": "grass"
    },
    {
      "mesh": 2,
      "name": "grass_lambert9_0"
    },
    {
      "children": [
        11
      ],
      "name": "pot"
    },
    {
      "mesh": 3,
      "name": "pot_lambert5_0"
    }
  ],
  "samplers": [
    {
      "magFilter": 9729,
      "minFilter": 9987,
      "wrapS": 10497,
      "wrapT": 10497
    }
  ],
  "scene": 0,
  "scenes": [
    {
      "name": "Sketchfab_Scene",
      "nodes": [
        0
      ]
    }
  ],
  "textures": [
    {
      "sampler": 0,
      "source": 0
    },
    {
      "sampler": 0,
      "source": 1
    }
  ]
}
